<mxfile host="Electron" modified="2024-05-20T20:15:03.405Z" agent="Mozilla/5.0 (Windows NT 10.0; Win64; x64) AppleWebKit/537.36 (KHTML, like Gecko) draw.io/23.1.5 Chrome/120.0.6099.109 Electron/28.1.0 Safari/537.36" etag="YEmEEytTp6HaM_n8x_9q" version="23.1.5" type="device">
  <diagram name="Strona-1" id="qhjlecZrfErG3EmEXIc5">
    <mxGraphModel dx="925" dy="617" grid="1" gridSize="10" guides="1" tooltips="1" connect="1" arrows="1" fold="1" page="1" pageScale="1" pageWidth="700" pageHeight="300" math="0" shadow="0">
      <root>
        <mxCell id="0" />
        <mxCell id="1" parent="0" />
        <mxCell id="CpuY23wt4_82asa5ZrPF-35" style="edgeStyle=orthogonalEdgeStyle;rounded=0;orthogonalLoop=1;jettySize=auto;html=1;exitX=1;exitY=0.5;exitDx=0;exitDy=0;entryX=0;entryY=0.5;entryDx=0;entryDy=0;" edge="1" parent="1" source="CpuY23wt4_82asa5ZrPF-25" target="CpuY23wt4_82asa5ZrPF-27">
          <mxGeometry relative="1" as="geometry" />
        </mxCell>
        <mxCell id="CpuY23wt4_82asa5ZrPF-36" value="buffer = fifo_out&lt;br&gt;compar_mem = 0&lt;br&gt;addr = 0&lt;br&gt;lock = 0" style="edgeLabel;html=1;align=center;verticalAlign=middle;resizable=0;points=[];" vertex="1" connectable="0" parent="CpuY23wt4_82asa5ZrPF-35">
          <mxGeometry x="-0.7444" y="-3" relative="1" as="geometry">
            <mxPoint x="29" y="32" as="offset" />
          </mxGeometry>
        </mxCell>
        <mxCell id="CpuY23wt4_82asa5ZrPF-25" value="LOAD_&lt;br&gt;DATA" style="ellipse;whiteSpace=wrap;html=1;" vertex="1" parent="1">
          <mxGeometry x="130" y="70" width="50" height="50" as="geometry" />
        </mxCell>
        <mxCell id="CpuY23wt4_82asa5ZrPF-33" style="edgeStyle=orthogonalEdgeStyle;rounded=0;orthogonalLoop=1;jettySize=auto;html=1;exitX=1;exitY=0.5;exitDx=0;exitDy=0;" edge="1" parent="1" source="CpuY23wt4_82asa5ZrPF-26" target="CpuY23wt4_82asa5ZrPF-25">
          <mxGeometry relative="1" as="geometry" />
        </mxCell>
        <mxCell id="CpuY23wt4_82asa5ZrPF-34" value="&lt;i&gt;!fifo_empty&lt;br&gt;&lt;/i&gt;fifo_read = 1" style="edgeLabel;html=1;align=center;verticalAlign=middle;resizable=0;points=[];" vertex="1" connectable="0" parent="CpuY23wt4_82asa5ZrPF-33">
          <mxGeometry x="-0.3476" y="3" relative="1" as="geometry">
            <mxPoint x="11" y="-22" as="offset" />
          </mxGeometry>
        </mxCell>
        <mxCell id="CpuY23wt4_82asa5ZrPF-26" value="IDLE" style="ellipse;whiteSpace=wrap;html=1;" vertex="1" parent="1">
          <mxGeometry x="20" y="70" width="50" height="50" as="geometry" />
        </mxCell>
        <mxCell id="CpuY23wt4_82asa5ZrPF-38" style="edgeStyle=orthogonalEdgeStyle;rounded=0;orthogonalLoop=1;jettySize=auto;html=1;exitX=1;exitY=0.5;exitDx=0;exitDy=0;entryX=0;entryY=0.5;entryDx=0;entryDy=0;" edge="1" parent="1" source="CpuY23wt4_82asa5ZrPF-27" target="CpuY23wt4_82asa5ZrPF-28">
          <mxGeometry relative="1" as="geometry">
            <mxPoint x="420" y="95" as="targetPoint" />
          </mxGeometry>
        </mxCell>
        <mxCell id="CpuY23wt4_82asa5ZrPF-43" value="&lt;i&gt;addr == 7&lt;/i&gt;" style="edgeLabel;html=1;align=center;verticalAlign=middle;resizable=0;points=[];" vertex="1" connectable="0" parent="CpuY23wt4_82asa5ZrPF-38">
          <mxGeometry x="-0.0514" y="1" relative="1" as="geometry">
            <mxPoint x="2" y="-14" as="offset" />
          </mxGeometry>
        </mxCell>
        <mxCell id="CpuY23wt4_82asa5ZrPF-27" value="MIN_&lt;br&gt;VALUE" style="ellipse;whiteSpace=wrap;html=1;" vertex="1" parent="1">
          <mxGeometry x="270" y="60" width="80" height="70" as="geometry" />
        </mxCell>
        <mxCell id="CpuY23wt4_82asa5ZrPF-46" style="edgeStyle=orthogonalEdgeStyle;rounded=0;orthogonalLoop=1;jettySize=auto;html=1;exitX=1;exitY=0;exitDx=0;exitDy=0;entryX=0;entryY=0;entryDx=0;entryDy=0;" edge="1" parent="1" source="CpuY23wt4_82asa5ZrPF-28" target="CpuY23wt4_82asa5ZrPF-29">
          <mxGeometry relative="1" as="geometry" />
        </mxCell>
        <mxCell id="CpuY23wt4_82asa5ZrPF-48" value="&lt;div&gt;&lt;i&gt;analyse_m[23:0] &amp;gt;= buffer[23:0] &amp;amp;&amp;amp; lock&lt;/i&gt;&lt;/div&gt;&lt;div&gt;mem[compar_index] = buffer&lt;/div&gt;" style="edgeLabel;html=1;align=center;verticalAlign=middle;resizable=0;points=[];" vertex="1" connectable="0" parent="CpuY23wt4_82asa5ZrPF-46">
          <mxGeometry x="-0.3164" y="5" relative="1" as="geometry">
            <mxPoint x="18" y="-22" as="offset" />
          </mxGeometry>
        </mxCell>
        <mxCell id="CpuY23wt4_82asa5ZrPF-49" style="edgeStyle=orthogonalEdgeStyle;rounded=0;orthogonalLoop=1;jettySize=auto;html=1;exitX=1;exitY=1;exitDx=0;exitDy=0;entryX=0;entryY=1;entryDx=0;entryDy=0;" edge="1" parent="1" source="CpuY23wt4_82asa5ZrPF-28" target="CpuY23wt4_82asa5ZrPF-29">
          <mxGeometry relative="1" as="geometry" />
        </mxCell>
        <mxCell id="CpuY23wt4_82asa5ZrPF-50" value="&lt;div&gt;&lt;i&gt;analyse_m[23:0] &amp;lt; buffer[23:0] &amp;amp;&amp;amp; lock&lt;/i&gt;&lt;/div&gt;&lt;div&gt;&lt;i&gt;&lt;br&gt;&lt;/i&gt;&lt;/div&gt;" style="edgeLabel;html=1;align=center;verticalAlign=middle;resizable=0;points=[];" vertex="1" connectable="0" parent="CpuY23wt4_82asa5ZrPF-49">
          <mxGeometry x="-0.78" relative="1" as="geometry">
            <mxPoint x="6" y="22" as="offset" />
          </mxGeometry>
        </mxCell>
        <mxCell id="CpuY23wt4_82asa5ZrPF-28" value="SAVE" style="ellipse;whiteSpace=wrap;html=1;" vertex="1" parent="1">
          <mxGeometry x="400" y="70" width="50" height="50" as="geometry" />
        </mxCell>
        <mxCell id="CpuY23wt4_82asa5ZrPF-51" style="edgeStyle=orthogonalEdgeStyle;rounded=0;orthogonalLoop=1;jettySize=auto;html=1;exitX=0.5;exitY=1;exitDx=0;exitDy=0;entryX=0.5;entryY=1;entryDx=0;entryDy=0;curved=1;" edge="1" parent="1" source="CpuY23wt4_82asa5ZrPF-29" target="CpuY23wt4_82asa5ZrPF-26">
          <mxGeometry relative="1" as="geometry">
            <Array as="points">
              <mxPoint x="565" y="180" />
              <mxPoint x="45" y="180" />
            </Array>
          </mxGeometry>
        </mxCell>
        <mxCell id="CpuY23wt4_82asa5ZrPF-52" value="&lt;i&gt;count != packet_size&lt;/i&gt;" style="edgeLabel;html=1;align=center;verticalAlign=middle;resizable=0;points=[];" vertex="1" connectable="0" parent="CpuY23wt4_82asa5ZrPF-51">
          <mxGeometry x="-0.3363" y="1" relative="1" as="geometry">
            <mxPoint x="-63" y="9" as="offset" />
          </mxGeometry>
        </mxCell>
        <mxCell id="CpuY23wt4_82asa5ZrPF-53" style="edgeStyle=orthogonalEdgeStyle;rounded=0;orthogonalLoop=1;jettySize=auto;html=1;exitX=1;exitY=0.5;exitDx=0;exitDy=0;entryX=0.5;entryY=0;entryDx=0;entryDy=0;curved=1;" edge="1" parent="1" source="CpuY23wt4_82asa5ZrPF-29" target="CpuY23wt4_82asa5ZrPF-30">
          <mxGeometry relative="1" as="geometry" />
        </mxCell>
        <mxCell id="CpuY23wt4_82asa5ZrPF-54" value="&lt;i&gt;count == packet_size&lt;/i&gt;&lt;br&gt;addr = 0&lt;br&gt;count = 0" style="edgeLabel;html=1;align=center;verticalAlign=middle;resizable=0;points=[];" vertex="1" connectable="0" parent="CpuY23wt4_82asa5ZrPF-53">
          <mxGeometry x="0.0183" relative="1" as="geometry">
            <mxPoint x="7" y="-25" as="offset" />
          </mxGeometry>
        </mxCell>
        <mxCell id="CpuY23wt4_82asa5ZrPF-29" value="START_&lt;br&gt;SEND" style="ellipse;whiteSpace=wrap;html=1;" vertex="1" parent="1">
          <mxGeometry x="540" y="70" width="50" height="50" as="geometry" />
        </mxCell>
        <mxCell id="CpuY23wt4_82asa5ZrPF-56" style="edgeStyle=orthogonalEdgeStyle;rounded=0;orthogonalLoop=1;jettySize=auto;html=1;exitX=0.5;exitY=1;exitDx=0;exitDy=0;entryX=1;entryY=0.5;entryDx=0;entryDy=0;curved=1;" edge="1" parent="1" source="CpuY23wt4_82asa5ZrPF-30" target="CpuY23wt4_82asa5ZrPF-31">
          <mxGeometry relative="1" as="geometry" />
        </mxCell>
        <mxCell id="CpuY23wt4_82asa5ZrPF-30" value="SEND" style="ellipse;whiteSpace=wrap;html=1;" vertex="1" parent="1">
          <mxGeometry x="620" y="125" width="50" height="50" as="geometry" />
        </mxCell>
        <mxCell id="CpuY23wt4_82asa5ZrPF-61" style="edgeStyle=orthogonalEdgeStyle;rounded=0;orthogonalLoop=1;jettySize=auto;html=1;exitX=0;exitY=0.5;exitDx=0;exitDy=0;entryX=1;entryY=0.5;entryDx=0;entryDy=0;" edge="1" parent="1" source="CpuY23wt4_82asa5ZrPF-31" target="CpuY23wt4_82asa5ZrPF-32">
          <mxGeometry relative="1" as="geometry" />
        </mxCell>
        <mxCell id="CpuY23wt4_82asa5ZrPF-62" value="&lt;i&gt;addr == 7&lt;/i&gt;" style="edgeLabel;html=1;align=center;verticalAlign=middle;resizable=0;points=[];" vertex="1" connectable="0" parent="CpuY23wt4_82asa5ZrPF-61">
          <mxGeometry x="0.1323" y="-4" relative="1" as="geometry">
            <mxPoint y="-11" as="offset" />
          </mxGeometry>
        </mxCell>
        <mxCell id="CpuY23wt4_82asa5ZrPF-63" value="&lt;i&gt;addr != 7&lt;/i&gt;&lt;br&gt;addr ++" style="edgeStyle=orthogonalEdgeStyle;rounded=0;orthogonalLoop=1;jettySize=auto;html=1;exitX=0.5;exitY=0;exitDx=0;exitDy=0;entryX=0;entryY=0.5;entryDx=0;entryDy=0;curved=1;" edge="1" parent="1" source="CpuY23wt4_82asa5ZrPF-31" target="CpuY23wt4_82asa5ZrPF-30">
          <mxGeometry x="-0.5897" y="35" relative="1" as="geometry">
            <mxPoint as="offset" />
          </mxGeometry>
        </mxCell>
        <mxCell id="CpuY23wt4_82asa5ZrPF-31" value="CHECK_&lt;br&gt;SEND" style="ellipse;whiteSpace=wrap;html=1;" vertex="1" parent="1">
          <mxGeometry x="490" y="240" width="50" height="50" as="geometry" />
        </mxCell>
        <mxCell id="CpuY23wt4_82asa5ZrPF-64" value="&lt;i&gt;sort_rdy&lt;/i&gt;" style="edgeStyle=orthogonalEdgeStyle;rounded=0;orthogonalLoop=1;jettySize=auto;html=1;exitX=0;exitY=0.5;exitDx=0;exitDy=0;entryX=0.5;entryY=1;entryDx=0;entryDy=0;curved=1;" edge="1" parent="1" source="CpuY23wt4_82asa5ZrPF-32" target="CpuY23wt4_82asa5ZrPF-26">
          <mxGeometry x="-0.3647" y="-35" relative="1" as="geometry">
            <mxPoint as="offset" />
          </mxGeometry>
        </mxCell>
        <mxCell id="CpuY23wt4_82asa5ZrPF-32" value="FINISH" style="ellipse;whiteSpace=wrap;html=1;" vertex="1" parent="1">
          <mxGeometry x="325" y="240" width="50" height="50" as="geometry" />
        </mxCell>
        <mxCell id="CpuY23wt4_82asa5ZrPF-41" style="edgeStyle=orthogonalEdgeStyle;rounded=0;orthogonalLoop=1;jettySize=auto;html=1;exitX=1;exitY=1;exitDx=0;exitDy=0;entryX=0;entryY=1;entryDx=0;entryDy=0;curved=1;" edge="1" parent="1" source="CpuY23wt4_82asa5ZrPF-27" target="CpuY23wt4_82asa5ZrPF-27">
          <mxGeometry relative="1" as="geometry">
            <Array as="points">
              <mxPoint x="338" y="140" />
              <mxPoint x="282" y="140" />
            </Array>
          </mxGeometry>
        </mxCell>
        <mxCell id="CpuY23wt4_82asa5ZrPF-42" value="&lt;i&gt;addr != 7&lt;br&gt;&lt;/i&gt;addr ++" style="edgeLabel;html=1;align=center;verticalAlign=middle;resizable=0;points=[];" vertex="1" connectable="0" parent="CpuY23wt4_82asa5ZrPF-41">
          <mxGeometry x="-0.1142" y="2" relative="1" as="geometry">
            <mxPoint x="-6" y="18" as="offset" />
          </mxGeometry>
        </mxCell>
        <mxCell id="CpuY23wt4_82asa5ZrPF-45" value="&lt;i style=&quot;font-size: 8px;&quot;&gt;&lt;font style=&quot;font-size: 8px;&quot;&gt;analyse[23:0] &amp;gt;= f_compar_mem&lt;br&gt;&lt;/font&gt;&lt;/i&gt;&lt;div style=&quot;font-size: 8px;&quot;&gt;&lt;font style=&quot;font-size: 8px;&quot;&gt;compar_index = addr&lt;/font&gt;&lt;/div&gt;&lt;div style=&quot;font-size: 8px;&quot;&gt;&lt;font style=&quot;font-size: 8px;&quot;&gt;compar_mem = analyse[23:0]&lt;span style=&quot;&quot;&gt;&lt;/span&gt;&lt;/font&gt;&lt;/div&gt;&lt;div style=&quot;font-size: 8px;&quot;&gt;&lt;font style=&quot;font-size: 8px;&quot;&gt;lock = 1&lt;/font&gt;&lt;/div&gt;" style="text;html=1;align=center;verticalAlign=middle;whiteSpace=wrap;rounded=0;" vertex="1" parent="1">
          <mxGeometry x="240" y="10" width="140" height="40" as="geometry" />
        </mxCell>
        <mxCell id="CpuY23wt4_82asa5ZrPF-55" value="&lt;font style=&quot;font-size: 8px;&quot;&gt;mem[compar_index] = analyse_m&lt;br&gt;&lt;span style=&quot;font-size: 8px;&quot;&gt;mem[f_addr] = analyse&lt;/span&gt;&lt;br&gt;&lt;/font&gt;" style="text;html=1;align=center;verticalAlign=middle;whiteSpace=wrap;rounded=0;" vertex="1" parent="1">
          <mxGeometry y="250" width="190" height="40" as="geometry" />
        </mxCell>
        <mxCell id="CpuY23wt4_82asa5ZrPF-58" value="&lt;b&gt;Stream&amp;nbsp;&lt;/b&gt;&lt;div&gt;-&amp;gt;&amp;nbsp;analyse&lt;/div&gt;" style="rounded=0;whiteSpace=wrap;html=1;fillColor=#1ba1e2;fontColor=#ffffff;strokeColor=#006EAF;" vertex="1" parent="1">
          <mxGeometry x="570" y="180" width="120" height="60" as="geometry" />
        </mxCell>
      </root>
    </mxGraphModel>
  </diagram>
</mxfile>
